<svg width="5018" height="5105" viewBox="0 0 5018 5105" fill="none" xmlns="http://www.w3.org/2000/svg">
  <rect width="5018" height="5105" fill="#141214"/>
  <g transform="translate(752.7 765.75) scale(0.7)">
  <path d="M3839.37 259.14C3448.73 -13.6189 2908.55 -76.3206 2432.46 96.1133C2389.73 111.789 2319.54 140.004 2252.4 165.085C2334.8 168.221 2414.15 177.628 2493.5 190.168C2688.82 224.655 2871.92 299.899 3039.78 409.63C3055.04 419.035 3067.24 428.44 3082.5 437.845C3409.05 666.712 3634.89 1014.71 3723.4 1425.42C3735.6 1484.99 3744.76 1544.56 3750.86 1604.13C3750.86 1610.4 3750.86 1613.53 3753.92 1619.8C3756.97 1644.88 3756.97 1669.97 3760.02 1695.05C3760.02 1704.45 3760.02 1710.72 3763.07 1720.13C3763.07 1754.61 3766.12 1785.97 3766.12 1820.45C3766.12 1842.4 3766.12 1864.34 3763.07 1886.29C3744.76 2228.02 3720.35 2481.97 3534.18 2851.92C3366.33 3187.38 3146.6 3438.2 2874.98 3616.9C3131.34 3563.6 3384.64 3447.6 3610.48 3278.3C3634.89 3259.49 3659.31 3240.68 3680.67 3221.87C3741.71 3171.71 3799.69 3115.27 3857.68 3055.71C3927.87 2983.6 3991.96 2905.22 4053 2823.71C4071.31 2798.62 4092.67 2770.41 4110.99 2742.19C4220.85 2576.03 4306.3 2400.46 4367.34 2215.48C4519.93 1754.61 4510.78 1281.21 4342.93 879.904C4223.9 622.821 4053 409.628 3839.37 259.14Z" fill="white"/>
  <path d="M4595.1 1213.17C4551.96 1146.91 4505.5 1083.97 4455.73 1024.35C4455.73 1027.66 4459.05 1030.97 4459.05 1034.29C4462.37 1044.22 4465.68 1054.16 4469 1064.1C4475.64 1080.66 4478.96 1100.54 4485.59 1117.1C4488.91 1127.04 4492.23 1136.98 4492.23 1150.23C4495.55 1166.79 4502.19 1183.35 4505.5 1203.23C4508.82 1213.16 4508.82 1226.42 4512.14 1236.35C4515.46 1252.92 4518.78 1272.79 4522.1 1289.36C4525.41 1299.29 4525.41 1312.54 4528.73 1322.48C4532.05 1342.36 4535.37 1358.92 4535.37 1378.8C4535.37 1388.73 4538.69 1398.67 4538.69 1408.61C4542.01 1428.48 4542 1448.36 4545.32 1468.23C4545.32 1478.17 4545.32 1484.8 4548.64 1494.74C4551.96 1554.36 4551.96 1610.68 4551.96 1670.3C4551.96 1676.93 4551.96 1686.87 4551.96 1693.49C4551.96 1716.68 4548.64 1736.56 4548.64 1759.75C4548.64 1769.68 4545.32 1779.62 4545.32 1789.56C4545.32 1809.43 4542.01 1829.31 4538.69 1849.18C4538.69 1859.12 4535.37 1872.37 4535.37 1882.31C4532.05 1902.19 4532.05 1918.75 4528.73 1938.62C4525.41 1948.56 4525.41 1961.81 4522.1 1971.75C4518.78 1991.63 4515.46 2011.5 4512.14 2028.06C4508.82 2038 4508.82 2051.25 4505.5 2061.19C4502.19 2081.07 4495.55 2100.94 4492.23 2120.82C4488.91 2130.75 4488.91 2140.69 4485.59 2150.63C4478.96 2173.82 4472.32 2197.01 4465.68 2216.88C4462.36 2223.51 4462.37 2230.13 4459.05 2240.07C4449.09 2269.89 4439.14 2299.7 4429.18 2329.51C4396 2422.26 4359.5 2515.02 4313.04 2604.46C4309.73 2611.08 4306.41 2617.71 4303.09 2624.33C4283.18 2660.77 4263.27 2697.21 4243.36 2730.34C4236.73 2740.27 4230.09 2753.52 4226.77 2763.46C4200.22 2809.84 4170.36 2856.21 4140.5 2899.28C4004.45 3098.03 3845.17 3270.29 3662.67 3416.04C3632.8 3439.23 3606.26 3459.11 3576.39 3482.3C3320.89 3671.11 3068.7 3783.74 2766.74 3843.37C2740.19 3849.99 2716.96 3853.31 2690.41 3856.62C2677.14 3859.93 2667.19 3859.93 2653.91 3863.24C2647.28 3863.24 2624.05 3866.56 2604.14 3869.87C2561 3873.18 2517.87 3879.81 2474.73 3879.81C2368.54 3876.49 2265.68 3866.56 2166.13 3843.37C2116.36 3833.43 2069.9 3820.18 2026.76 3806.93C1406.25 3621.42 1001.42 3121.22 1018.01 2561.39C1037.92 1859.12 1721.48 1305.92 2544.41 1329.11C2693.73 1332.42 2839.74 1355.61 2979.11 1395.36H2982.42C3254.52 1474.86 3490.12 1617.3 3669.3 1806.12C3669.3 1799.49 3669.3 1796.18 3669.3 1789.56C3669.3 1779.62 3669.3 1769.68 3669.3 1759.75C3669.3 1736.56 3665.98 1716.68 3665.98 1693.49C3665.98 1683.56 3662.67 1673.62 3662.67 1663.68C3659.35 1640.49 3656.03 1617.3 3652.71 1597.43C3652.71 1587.49 3649.39 1580.86 3649.39 1570.93C3642.76 1541.11 3639.44 1507.99 3632.8 1478.17C3543.21 1060.79 3304.29 703.026 2959.19 471.144C2926.01 447.956 2889.51 424.768 2853.01 404.892C2836.42 394.954 2816.51 385.016 2796.6 375.078C2780.01 365.14 2763.42 358.515 2746.83 348.577C2723.6 338.64 2700.37 325.389 2673.82 315.451C2660.55 308.826 2650.6 305.515 2637.32 302.202C2610.78 292.264 2587.55 282.325 2561 275.7C2547.73 272.387 2534.46 265.763 2521.18 262.451C2497.96 255.826 2474.73 249.199 2448.18 242.574C2428.27 235.949 2405.05 232.637 2385.14 229.325C2368.55 226.012 2355.27 222.7 2338.68 219.387C2219.22 199.512 2093.13 189.574 1963.72 196.199C1572.16 226.012 1220.43 441.331 1117.56 510.895C822.234 706.339 580.005 954.782 390.864 1252.92C-140.057 2091 -130.106 3164.29 420.725 3989.12C1190.56 5138.59 2753.46 5449.98 3904.9 4684.77C5053.01 3926.18 5364.93 2365.95 4595.1 1213.17Z" fill="white"/>
  <path d="M2322.51 1628.86C2442.93 1551.05 2566.29 1510.59 2683.77 1482.58C2677.9 1482.58 2672.02 1479.47 2666.15 1479.47C2636.78 1473.24 2604.47 1467.02 2575.1 1463.9C2563.35 1463.9 2554.54 1460.79 2542.79 1460.79C2504.61 1457.68 2466.43 1454.57 2425.31 1451.46C2422.37 1451.46 2422.37 1451.46 2419.44 1451.46C2401.81 1451.46 2387.13 1451.46 2369.5 1451.46C2360.69 1451.46 2351.88 1451.46 2340.13 1451.46C2328.39 1451.46 2313.7 1451.46 2301.95 1451.46C2293.14 1451.46 2287.27 1451.46 2278.46 1451.46C2263.77 1451.46 2249.08 1454.57 2237.34 1454.57C2231.46 1454.57 2225.59 1454.57 2216.78 1457.68C2202.09 1460.79 2187.41 1460.79 2172.72 1463.9C2166.85 1463.9 2160.97 1467.02 2155.1 1467.02C2140.42 1470.13 2125.73 1473.24 2111.04 1476.35C2105.17 1476.35 2099.29 1479.47 2093.42 1479.47C2078.73 1482.58 2064.05 1485.69 2052.3 1488.8C2046.43 1488.8 2040.55 1491.92 2034.68 1491.92C2019.99 1495.03 2008.25 1498.14 1993.56 1504.37C1987.69 1507.48 1981.81 1507.48 1973 1510.59C1961.25 1513.7 1949.51 1519.93 1934.82 1523.04C1928.95 1526.15 1920.13 1529.27 1914.26 1529.27C1902.51 1532.38 1890.76 1538.6 1881.95 1541.71C1873.14 1544.83 1864.33 1547.94 1858.45 1551.05C1849.64 1554.16 1837.9 1560.39 1829.08 1563.5C1820.27 1566.61 1811.46 1572.84 1802.65 1575.95C1793.84 1579.06 1785.03 1585.29 1776.22 1588.4C1767.41 1594.62 1755.66 1597.74 1746.85 1603.96C1740.97 1607.07 1732.16 1610.19 1726.29 1616.41C1714.54 1622.64 1705.73 1628.86 1693.98 1635.08C1688.11 1638.2 1682.23 1641.31 1676.36 1644.42C1664.61 1650.65 1652.86 1656.87 1641.12 1666.21C1635.24 1669.32 1632.3 1672.43 1629.37 1675.55C1617.62 1684.88 1605.87 1691.11 1594.12 1700.45C1591.18 1703.56 1588.25 1706.67 1585.31 1706.67C1573.56 1716.01 1561.81 1725.34 1550.06 1734.68C1547.13 1737.79 1544.19 1737.79 1544.19 1740.91C1532.44 1750.24 1517.76 1762.69 1506.01 1772.03C1503.07 1772.03 1503.07 1775.14 1500.13 1775.14C1488.39 1787.59 1473.7 1796.93 1461.95 1809.38L1459.02 1812.49C1447.27 1824.94 1432.58 1837.39 1420.84 1849.84C1409.09 1862.29 1397.34 1877.85 1385.59 1890.3C1350.34 1933.87 1315.1 1977.44 1285.73 2024.13C1276.92 2039.69 1265.17 2055.25 1256.36 2070.82C1247.55 2086.38 1238.74 2101.94 1229.93 2117.5V2120.61C1221.12 2136.18 1215.24 2151.74 1206.43 2167.3C1206.43 2170.41 1206.43 2170.41 1203.49 2173.53C1197.62 2189.09 1191.75 2204.65 1185.87 2220.21C1185.87 2223.32 1182.93 2226.43 1182.93 2226.43C1177.06 2242 1171.18 2257.56 1168.25 2270.01C1168.25 2273.12 1165.31 2276.23 1165.31 2282.46C1162.37 2294.91 1156.5 2310.47 1153.56 2326.03C1153.56 2332.25 1150.62 2338.48 1150.62 2341.59C1147.69 2354.04 1144.75 2366.49 1141.82 2378.94C1138.88 2385.17 1138.88 2394.5 1138.88 2400.73C1135.94 2410.06 1135.94 2422.51 1133 2431.85C1130.07 2444.3 1130.07 2453.64 1130.07 2466.09C1130.07 2475.42 1127.13 2481.65 1127.13 2490.98C1127.13 2509.66 1124.19 2525.22 1124.19 2543.9C1124.19 2547.01 1124.19 2547.01 1124.19 2550.12C1124.19 2581.24 1124.19 2609.26 1127.13 2640.38C1127.13 2649.72 1130.07 2659.05 1130.07 2668.39C1133 2687.06 1133 2708.85 1135.94 2727.53C1138.88 2739.97 1138.88 2749.31 1141.82 2761.76C1144.75 2780.44 1147.69 2796 1153.56 2814.67C1156.5 2827.12 1159.44 2836.46 1162.37 2848.91C1168.25 2864.47 1171.18 2883.14 1177.06 2898.71C1180 2911.16 1185.87 2920.49 1188.81 2932.94C1194.68 2948.5 1200.55 2964.06 1206.43 2979.63C1212.3 2992.08 1215.24 3001.41 1221.11 3013.86C1226.99 3029.43 1235.8 3044.99 1244.61 3060.55C1250.49 3069.89 1256.36 3082.34 1262.23 3091.67C1271.04 3107.23 1279.86 3122.8 1288.67 3138.36C1294.54 3147.7 1300.42 3157.03 1306.29 3166.37C1318.04 3181.93 1326.85 3197.49 1338.6 3213.05C1344.47 3222.39 1350.34 3228.62 1356.22 3237.95C1370.9 3256.63 1385.59 3275.3 1400.27 3290.86C1403.21 3297.09 1409.09 3300.2 1412.02 3306.42C1432.58 3328.21 1453.14 3350 1473.7 3371.79C1479.57 3374.9 1482.51 3381.12 1488.39 3384.23C1506.01 3399.8 1523.63 3415.36 1541.25 3430.92C1550.07 3437.14 1558.87 3443.37 1564.75 3449.59C1579.43 3462.04 1597.06 3474.49 1614.68 3486.94C1623.49 3493.17 1635.24 3499.39 1644.05 3505.62C1658.74 3514.95 1676.36 3527.4 1693.98 3536.74C1705.73 3542.96 1714.54 3549.19 1726.29 3555.41C1743.91 3564.75 1758.6 3574.09 1776.22 3583.43C1787.97 3589.65 1799.71 3595.88 1811.46 3598.99C1820.27 3602.1 1826.15 3605.21 1834.96 3608.32C1749.79 3514.95 1691.05 3390.46 1655.8 3228.62C1511.88 2565.68 1890.76 1908.97 2322.51 1628.86Z" fill="white"/>
  </g>
  </svg>
  